PathFileType  4	(X/Y/Z) C:\Users\antoi\Documents\MyRepositories\mobilecap\ResultsAnalysis
DataRate	CameraRate	NumFrames	NumMarkers	Units	OrigDataRate	OrigDataStartFrame	OrigNumFrames
100.0	100.0	4	51	mm	100.0	221	294
Frame#	Time	r_knee			r_shank_antsup			r_ankle			r_calc			r_5meta			r_toe			L_knee			L_shank_antsup			L_ankle			L_calc			L_5meta			L_toe			r_sh2			r_sh3			r_sh4			L_sh2			L_sh3			r_thigh1			r_thigh2			r_thigh3			r_thigh4			r_thigh5			L_thigh1			L_thigh2			L_thigh3			L_thigh4			r.ASIS			r.PSIS			L.ASIS			L.PSIS			C7			R_Shoulder			L_Shoulder			R_Sternum			L_Sternum			R_humerus			R_elbow_med			R_elbow_lat			R_forearm			R_wrist_radius			R_wrist_ulna			L_humerus			L_elbow_med			L_elbow_lat			L_forearm			L_wrist_radius			L_wrist_ulna			R_HJC			L_HJC			R_HJC_reg			L_HJC_reg			
		X1	Y1	Z1	X2	Y2	Z2	X3	Y3	Z3	X4	Y4	Z4	X5	Y5	Z5	X6	Y6	Z6	X7	Y7	Z7	X8	Y8	Z8	X9	Y9	Z9	X10	Y10	Z10	X11	Y11	Z11	X12	Y12	Z12	X13	Y13	Z13	X14	Y14	Z14	X15	Y15	Z15	X16	Y16	Z16	X17	Y17	Z17	X18	Y18	Z18	X19	Y19	Z19	X20	Y20	Z20	X21	Y21	Z21	X22	Y22	Z22	X23	Y23	Z23	X24	Y24	Z24	X25	Y25	Z25	X26	Y26	Z26	X27	Y27	Z27	X28	Y28	Z28	X29	Y29	Z29	X30	Y30	Z30	X31	Y31	Z31	X32	Y32	Z32	X33	Y33	Z33	X34	Y34	Z34	X35	Y35	Z35	X36	Y36	Z36	X37	Y37	Z37	X38	Y38	Z38	X39	Y39	Z39	X40	Y40	Z40	X41	Y41	Z41	X42	Y42	Z42	X43	Y43	Z43	X44	Y44	Z44	X45	Y45	Z45	X46	Y46	Z46	X47	Y47	Z47	X48	Y48	Z48	X49	Y49	Z49	X50	Y50	Z50	X51	Y51	Z51	

221	2.20000000	-200.22473	729.07230	-384.96321	-163.74305	624.58717	-371.07326	-209.38706	345.19416	-379.89160	-237.76104	361.65006	-442.56603	-173.96262	214.42559	-355.40111	-121.98029	204.37828	-380.47522	-203.16932	738.03529	-814.88713	-153.15921	639.77397	-803.81589	-222.73281	360.29034	-833.08393	-249.96816	372.16994	-779.01524	-187.43407	223.06372	-854.45408	-130.29673	211.93360	-820.91023	-160.14110	514.37857	-369.57162	-235.09128	620.88138	-346.68066	-242.44779	510.03453	-361.25759	-227.73626	664.16466	-848.25417	-234.42332	543.10431	-867.86922	-134.50821	1041.74181	-405.28282	-123.93176	934.74033	-389.25706	-173.78094	906.44889	-356.89908	-245.48421	1027.02255	-394.55175	-228.04851	914.69948	-368.82597	-157.47482	1039.84945	-799.21490	-130.23119	904.81455	-820.07192	-267.73040	1025.23911	-803.26522	-238.98599	887.30351	-824.37657	-81.89533	1168.77597	-481.75531	-248.49620	1261.94971	-537.53023	-90.35782	1181.61038	-718.07088	-256.65103	1270.09656	-652.02884	-213.45822	1693.23056	-584.14944	-170.62928	1725.56776	-503.82496	-161.68200	1734.83934	-679.46363	-73.35685	1662.60771	-569.01184	-72.93522	1659.22731	-602.67408	-146.40309	1784.29300	-437.76877	-67.17303	1832.85257	-253.04232	-116.80328	1881.33097	-278.36644	-66.60214	2002.28585	-272.45631	-22.63663	2092.96912	-282.99412	-20.35853	2092.59177	-250.72765	-126.96149	1796.41447	-753.02209	-20.76966	1841.63501	-917.65416	-78.04299	1883.31322	-904.52611	-54.26036	1979.31695	-921.88815	5.42396	2087.95094	-973.49149	-7.80991	2082.01810	-1002.23058	-189.12722	1125.46978	-503.22345	-191.56256	1130.63830	-692.51386	-167.88815	1123.71883	-511.87300	-178.98493	1134.79040	-667.38329	
222	2.21000000	-201.81611	746.20272	-385.96131	-161.61481	642.27134	-375.19024	-207.06303	361.90638	-379.53286	-237.50068	376.99873	-441.91646	-169.16949	230.93497	-356.22605	-117.92685	221.82861	-382.79515	-204.55308	754.46346	-813.05220	-153.57139	656.33496	-797.09459	-222.79752	377.13877	-834.05738	-250.94158	387.99569	-779.81595	-185.11639	239.94524	-854.24741	-128.39544	229.62384	-819.99319	-157.11557	531.44447	-372.76613	-230.61149	638.23590	-344.80394	-238.46566	527.03043	-358.56963	-223.38567	681.45265	-847.73173	-228.47487	561.40309	-869.83698	-133.02397	1055.43218	-404.43033	-124.80240	948.07688	-388.21909	-176.13720	920.91125	-356.68821	-244.23617	1043.43847	-392.84888	-229.84650	930.34585	-369.92764	-155.73662	1053.30475	-799.19227	-132.98420	917.44435	-820.23787	-266.44286	1042.34141	-804.16413	-242.10966	903.23676	-821.75464	-81.47821	1187.21483	-477.93665	-248.38997	1276.48872	-538.24684	-90.26236	1199.23358	-720.69428	-256.78298	1284.23237	-650.63354	-214.18449	1712.36723	-584.44116	-169.20567	1742.11862	-501.60015	-158.34606	1751.92285	-680.61592	-75.67296	1675.38238	-568.96488	-75.05653	1671.98147	-601.43453	-147.98656	1799.20743	-432.87540	-78.61201	1840.11514	-242.03897	-127.47895	1889.38096	-267.22634	-78.39762	2010.20922	-255.53256	-32.88081	2099.62848	-260.21158	-31.86908	2098.74791	-226.60815	-128.79549	1812.46983	-759.93607	-29.34234	1852.29239	-928.49115	-86.62691	1893.93873	-915.67860	-62.47744	1989.70001	-934.86366	-7.33537	2095.18195	-991.35187	-20.85063	2089.80147	-1020.94417	-187.24912	1141.63673	-502.41894	-189.85203	1146.10877	-691.72664	-166.88700	1138.28073	-509.04174	-178.80000	1149.28069	-668.74176	
223	2.22000000	-207.26711	763.09545	-387.26221	-162.47385	659.32236	-378.33551	-205.31107	378.07461	-379.93148	-235.12693	390.95359	-443.03812	-164.47744	247.46578	-354.74703	-112.89683	239.17624	-380.68279	-208.40761	770.50701	-811.78563	-155.31247	672.26061	-791.82207	-222.52580	392.84559	-834.30326	-250.61158	402.28776	-779.67545	-182.29600	256.85916	-856.83752	-125.20259	247.09485	-822.98228	-155.65172	547.66257	-374.95554	-230.05801	654.24941	-344.76297	-236.39159	542.63246	-357.74068	-221.55358	698.22967	-846.89638	-224.71375	578.52072	-870.92130	-130.55267	1067.40150	-404.93028	-125.62919	960.22996	-388.77184	-178.57741	934.40048	-358.03143	-242.06474	1059.89830	-390.87847	-231.70919	945.84071	-371.98728	-153.80936	1066.30272	-799.15129	-136.53048	929.33849	-819.60861	-264.79345	1059.42169	-804.52618	-246.09912	919.27770	-818.60047	-81.03081	1204.93500	-474.65018	-248.10329	1290.11730	-538.19055	-89.79800	1216.99357	-722.86471	-256.15711	1297.09890	-649.22261	-214.95587	1731.34706	-584.90526	-167.45397	1757.52959	-499.78232	-156.59805	1767.95244	-680.80399	-79.57191	1686.07946	-568.75841	-78.10100	1683.42733	-601.36954	-148.78044	1812.44786	-427.79621	-89.35008	1845.52095	-231.72612	-137.74236	1895.38408	-256.65436	-90.17792	2015.69794	-238.46908	-40.02940	2102.73710	-232.69050	-41.40295	2101.52849	-200.05305	-130.70839	1828.00841	-766.79648	-37.91876	1861.65215	-939.72678	-95.08757	1903.33945	-926.56442	-71.00430	1998.28438	-948.53535	-18.96940	2101.63145	-1008.97571	-32.91594	2095.69414	-1039.79121	-184.79418	1156.77629	-501.77298	-187.41104	1161.17852	-691.08181	-165.84150	1153.10165	-506.78813	-177.67689	1163.36729	-670.15374	
224	2.23000000	-214.08888	778.64722	-388.84752	-166.26693	674.77003	-378.57921	-204.13654	393.05330	-380.91285	-231.32273	404.41423	-445.45901	-161.67043	263.35455	-352.13707	-108.76127	255.72486	-375.38215	-213.86945	786.33556	-811.35574	-157.82162	687.78249	-790.43532	-222.39749	407.64179	-834.15750	-249.59861	415.95248	-778.97683	-180.71513	273.05079	-860.58937	-122.65347	263.51662	-828.05351	-156.80208	563.28291	-374.44488	-234.71481	668.21946	-347.21563	-237.87299	556.66512	-359.67245	-224.12709	713.93400	-846.19737	-225.71278	593.93932	-870.68246	-128.52366	1079.70921	-406.16940	-126.33367	972.67963	-389.99945	-180.32251	947.81187	-359.94085	-240.01335	1075.84842	-389.79056	-233.05791	961.20194	-373.84911	-152.87291	1079.95995	-798.66067	-139.69375	942.06525	-818.51039	-263.73285	1076.07225	-804.04917	-249.64053	935.34533	-815.97527	-80.60160	1221.37977	-472.39692	-247.80526	1303.06117	-537.48088	-89.36490	1233.82942	-724.16979	-255.79591	1309.20606	-648.30583	-215.17156	1749.27234	-585.37184	-166.66764	1772.04612	-498.57508	-156.51923	1783.00024	-680.94252	-83.06486	1697.06140	-569.26951	-81.07851	1695.18590	-602.30747	-149.32016	1823.71613	-422.58626	-99.73637	1849.18732	-222.19529	-147.80685	1899.51158	-246.87172	-101.84797	2018.79808	-222.19438	-49.27723	2104.40843	-206.85259	-52.17971	2102.55642	-174.71541	-132.72394	1842.48767	-773.25582	-46.80591	1869.37944	-950.92553	-103.73666	1911.44391	-937.23545	-80.05344	2005.20746	-962.97668	-28.46514	2106.66114	-1028.76339	-43.95679	2099.84356	-1058.29507	-182.48069	1170.95414	-501.23127	-185.19256	1175.50352	-690.53479	-164.63363	1167.86880	-504.94213	-176.59538	1177.06504	-670.72971	
